Normalized EMG Linear Envelopes
nRows=241
nColumns=4

endheader
time	 med_gas_r	  soleus_r	 tib_ant_r	
2.99395	  0.009725	  0.010955	  0.005663	
3.02722	  0.009724	  0.010852	  0.005604	
3.06048	  0.009786	  0.010735	  0.005549	
3.09375	  0.009861	  0.010609	  0.005546	
3.12702	  0.009911	  0.010448	  0.005618	
3.16028	  0.009939	  0.010273	  0.005735	
3.19355	  0.009935	  0.010103	  0.005842	
3.22681	  0.009917	  0.009961	  0.005917	
3.26008	  0.009910	  0.009871	  0.005975	
3.29335	  0.009917	  0.009841	  0.006044	
3.32661	  0.009910	  0.009925	  0.006130	
3.35988	  0.009872	  0.010215	  0.006209	
3.39315	  0.009824	  0.010736	  0.006257	
3.42641	  0.009780	  0.011429	  0.006272	
3.45968	  0.009780	  0.012214	  0.006257	
3.49294	  0.009831	  0.013004	  0.006221	
3.52621	  0.009886	  0.013738	  0.006163	
3.55948	  0.009961	  0.014339	  0.006086	
3.59274	  0.010066	  0.014677	  0.005995	
3.62601	  0.010219	  0.014607	  0.005880	
3.65927	  0.010476	  0.014138	  0.005755	
3.69254	  0.010854	  0.013565	  0.005646	
3.72581	  0.011296	  0.013132	  0.005565	
3.75907	  0.011654	  0.012976	  0.005539	
3.79234	  0.011786	  0.013113	  0.005583	
3.8256	  0.011662	  0.013434	  0.005691	
3.85887	  0.011334	  0.013779	  0.005852	
3.89214	  0.010902	  0.014019	  0.006042	
3.9254	  0.010453	  0.014030	  0.006223	
3.95867	  0.010070	  0.013903	  0.006371	
3.99194	  0.009801	  0.013837	  0.006481	
4.0252	  0.009673	  0.013930	  0.006556	
4.05847	  0.009675	  0.014166	  0.006576	
4.09173	  0.009758	  0.014359	  0.006524	
4.125	  0.009872	  0.014251	  0.006386	
4.15827	  0.010027	  0.013858	  0.006185	
4.19153	  0.010251	  0.013368	  0.005992	
4.2248	  0.010534	  0.012953	  0.005865	
4.25806	  0.010839	  0.012683	  0.005845	
4.29133	  0.011134	  0.012618	  0.005974	
4.3246	  0.011421	  0.012829	  0.006275	
4.35786	  0.011726	  0.013386	  0.006760	
4.39113	  0.012051	  0.014283	  0.007428	
4.4244	  0.012355	  0.015392	  0.008217	
4.45766	  0.012551	  0.016471	  0.008999	
4.49093	  0.012599	  0.017347	  0.009598	
4.52419	  0.012525	  0.018064	  0.009830	
4.55746	  0.012338	  0.018734	  0.009534	
4.59073	  0.012070	  0.019352	  0.008598	
4.62399	  0.011779	  0.019855	  0.007128	
4.65726	  0.011527	  0.020229	  0.005508	
4.69052	  0.011403	  0.020623	  0.004423	
4.72379	  0.011492	  0.021170	  0.004899	
4.75706	  0.011901	  0.021950	  0.008256	
4.79032	  0.012783	  0.023300	  0.016321	
4.82359	  0.014267	  0.025707	  0.031144	
4.85685	  0.016417	  0.029660	  0.054747	
4.89012	  0.019243	  0.035511	  0.089159	
4.92339	  0.022759	  0.043510	  0.135755	
4.95665	  0.027037	  0.053720	  0.194726	
4.98992	  0.032129	  0.065950	  0.264344	
5.02319	  0.038041	  0.079836	  0.341910	
5.05645	  0.044641	  0.094929	  0.424025	
5.08972	  0.051813	  0.111075	  0.506568	
5.12298	  0.059317	  0.128304	  0.585012	
5.15625	  0.067049	  0.146424	  0.655568	
5.18952	  0.074713	  0.164622	  0.716181	
5.22278	  0.081616	  0.181750	  0.764643	
5.25605	  0.087443	  0.197039	  0.801279	
5.28931	  0.092258	  0.210169	  0.825444	
5.32258	  0.096285	  0.221703	  0.836549	
5.35585	  0.099008	  0.231431	  0.835329	
5.38911	  0.099973	  0.239209	  0.825764	
5.42238	  0.099444	  0.245019	  0.811150	
5.45565	  0.097944	  0.248566	  0.791583	
5.48891	  0.095597	  0.248663	  0.764891	
5.52218	  0.092797	  0.245770	  0.730859	
5.55544	  0.090111	  0.241122	  0.695114	
5.58871	  0.087701	  0.235789	  0.661512	
5.62198	  0.085316	  0.229878	  0.629955	
5.65524	  0.083109	  0.224065	  0.599550	
5.68851	  0.081363	  0.219814	  0.570918	
5.72177	  0.080127	  0.218047	  0.547853	
5.75504	  0.079146	  0.219641	  0.532687	
5.78831	  0.077908	  0.223956	  0.524766	
5.82157	  0.076150	  0.229702	  0.522660	
5.85484	  0.074158	  0.236040	  0.525709	
5.8881	  0.072204	  0.241563	  0.530797	
5.92137	  0.070102	  0.244541	  0.534481	
5.95464	  0.067870	  0.244376	  0.536561	
5.9879	  0.065735	  0.241206	  0.536860	
6.02117	  0.063848	  0.237115	  0.533570	
6.05444	  0.062756	  0.234794	  0.529463	
6.0877	  0.063220	  0.235665	  0.528958	
6.12097	  0.065142	  0.238266	  0.530746	
6.15423	  0.068230	  0.241210	  0.533827	
6.1875	  0.072330	  0.243960	  0.537070	
6.22077	  0.077001	  0.246180	  0.539315	
6.25403	  0.081728	  0.249028	  0.540658	
6.2873	  0.085995	  0.252904	  0.541731	
6.32056	  0.089098	  0.256027	  0.545164	
6.35383	  0.089889	  0.255259	  0.553227	
6.3871	  0.088395	  0.250042	  0.565186	
6.42036	  0.085541	  0.242311	  0.579263	
6.45363	  0.082032	  0.234269	  0.593357	
6.4869	  0.078687	  0.227594	  0.603744	
6.52016	  0.076235	  0.223823	  0.610600	
6.55343	  0.074748	  0.222920	  0.614013	
6.58669	  0.074167	  0.225186	  0.610186	
6.61996	  0.074538	  0.230859	  0.599727	
6.65323	  0.075889	  0.239462	  0.589071	
6.68649	  0.077810	  0.249178	  0.584391	
6.71976	  0.079576	  0.257118	  0.586722	
6.75302	  0.081215	  0.262545	  0.595160	
6.78629	  0.082853	  0.265773	  0.606376	
6.81956	  0.084087	  0.266527	  0.614202	
6.85282	  0.084366	  0.264279	  0.612597	
6.88609	  0.083497	  0.259021	  0.600057	
6.91935	  0.081758	  0.251900	  0.580624	
6.95262	  0.079548	  0.244924	  0.558412	
6.98589	  0.076994	  0.238790	  0.533671	
7.01915	  0.073928	  0.231783	  0.509808	
7.05242	  0.070550	  0.222977	  0.490202	
7.08569	  0.067577	  0.213901	  0.477184	
7.11895	  0.065486	  0.206320	  0.470617	
7.15222	  0.064346	  0.201024	  0.468713	
7.18548	  0.063605	  0.197060	  0.468146	
7.21875	  0.062631	  0.192197	  0.464942	
7.25202	  0.061273	  0.185295	  0.460069	
7.28528	  0.059635	  0.176756	  0.455537	
7.31855	  0.057699	  0.166766	  0.449438	
7.35181	  0.055376	  0.156090	  0.439265	
7.38508	  0.052869	  0.146207	  0.425140	
7.41835	  0.050666	  0.138424	  0.409867	
7.45161	  0.049165	  0.133378	  0.396436	
7.48488	  0.048526	  0.131275	  0.387017	
7.51815	  0.048712	  0.131591	  0.382888	
7.55141	  0.049426	  0.133593	  0.383903	
7.58468	  0.050441	  0.137374	  0.389005	
7.61794	  0.051638	  0.142807	  0.396816	
7.65121	  0.052957	  0.149671	  0.405230	
7.68448	  0.054084	  0.156696	  0.411154	
7.71774	  0.054862	  0.162214	  0.413468	
7.75101	  0.055110	  0.164687	  0.411883	
7.78427	  0.054940	  0.164102	  0.408272	
7.81754	  0.054538	  0.161396	  0.403902	
7.85081	  0.054093	  0.157250	  0.398761	
7.88407	  0.053699	  0.152758	  0.393143	
7.91734	  0.053843	  0.150487	  0.388706	
7.9506	  0.055041	  0.152135	  0.386836	
7.98387	  0.057327	  0.157698	  0.386872	
8.01714	  0.060330	  0.166327	  0.387568	
8.0504	  0.063445	  0.176859	  0.388306	
8.08367	  0.065793	  0.186540	  0.388496	
8.11694	  0.067199	  0.194019	  0.388780	
8.1502	  0.067857	  0.198915	  0.391350	
8.18347	  0.067901	  0.200005	  0.398221	
8.21673	  0.068019	  0.198758	  0.410987	
8.25	  0.068665	  0.197373	  0.430731	
8.28327	  0.070294	  0.198597	  0.456537	
8.31653	  0.073013	  0.203748	  0.483960	
8.3498	  0.076661	  0.212432	  0.508618	
8.38306	  0.080977	  0.223930	  0.528090	
8.41633	  0.085395	  0.237484	  0.543117	
8.4496	  0.089163	  0.251802	  0.555245	
8.48286	  0.091856	  0.264804	  0.566463	
8.51613	  0.093251	  0.275823	  0.578764	
8.5494	  0.093403	  0.285145	  0.591855	
8.58266	  0.092613	  0.292698	  0.602330	
8.61593	  0.091153	  0.297023	  0.606001	
8.64919	  0.088835	  0.295936	  0.601927	
8.68246	  0.085639	  0.289743	  0.591824	
8.71573	  0.082159	  0.281181	  0.578483	
8.74899	  0.079567	  0.273798	  0.564055	
8.78226	  0.078482	  0.269431	  0.549722	
8.81552	  0.078711	  0.267569	  0.539135	
8.84879	  0.079922	  0.268823	  0.536743	
8.88206	  0.081971	  0.273049	  0.544550	
8.91532	  0.084750	  0.279152	  0.561151	
8.94859	  0.088011	  0.285858	  0.581980	
8.98185	  0.091511	  0.292350	  0.601052	
9.01512	  0.094800	  0.297842	  0.613171	
9.04839	  0.096947	  0.300939	  0.616457	
9.08165	  0.097301	  0.300201	  0.612402	
9.11492	  0.096351	  0.296846	  0.606751	
9.14819	  0.094335	  0.291298	  0.601900	
9.18145	  0.091934	  0.285484	  0.600649	
9.21472	  0.089366	  0.280104	  0.602807	
9.24798	  0.086064	  0.273710	  0.606318	
9.28125	  0.082636	  0.267843	  0.613265	
9.31452	  0.080397	  0.264913	  0.624400	
9.34778	  0.080040	  0.265840	  0.637231	
9.38105	  0.081405	  0.270208	  0.646150	
9.41431	  0.083621	  0.275919	  0.648430	
9.44758	  0.085263	  0.278784	  0.643338	
9.48085	  0.085631	  0.276230	  0.633839	
9.51411	  0.085195	  0.268829	  0.624665	
9.54738	  0.084538	  0.258173	  0.617233	
9.58065	  0.083745	  0.244368	  0.612002	
9.61391	  0.082634	  0.227447	  0.606298	
9.64718	  0.081634	  0.210077	  0.598778	
9.68044	  0.081383	  0.195908	  0.590306	
9.71371	  0.081682	  0.185779	  0.580710	
9.74698	  0.081458	  0.178630	  0.569040	
9.78024	  0.079480	  0.172391	  0.555948	
9.81351	  0.076065	  0.165503	  0.541618	
9.84677	  0.071874	  0.157629	  0.524907	
9.88004	  0.066992	  0.148351	  0.502185	
9.91331	  0.061387	  0.137532	  0.471182	
9.94657	  0.055557	  0.125964	  0.434250	
9.97984	  0.049736	  0.113984	  0.392945	
10.0131	  0.044051	  0.101917	  0.349427	
10.0464	  0.038579	  0.090141	  0.306009	
10.0796	  0.033516	  0.078859	  0.262626	
10.1129	  0.028995	  0.068088	  0.219376	
10.1462	  0.025110	  0.057784	  0.178298	
10.1794	  0.021898	  0.048093	  0.140972	
10.2127	  0.019269	  0.039352	  0.108087	
10.246	  0.017009	  0.032070	  0.080338	
10.2792	  0.015027	  0.026487	  0.058010	
10.3125	  0.013395	  0.022446	  0.040833	
10.3458	  0.012153	  0.019587	  0.028461	
10.379	  0.011280	  0.017550	  0.020305	
10.4123	  0.010742	  0.016068	  0.015598	
10.4456	  0.010507	  0.015012	  0.013411	
10.4788	  0.010474	  0.014261	  0.012731	
10.5121	  0.010537	  0.013697	  0.012786	
10.5454	  0.010650	  0.013290	  0.013077	
10.5786	  0.010776	  0.013076	  0.013387	
10.6119	  0.010862	  0.013047	  0.013614	
10.6452	  0.010895	  0.013154	  0.013749	
10.6784	  0.010868	  0.013272	  0.013754	
10.7117	  0.010781	  0.013244	  0.013544	
10.745	  0.010683	  0.013042	  0.013059	
10.7782	  0.010624	  0.012746	  0.012471	
10.8115	  0.010598	  0.012454	  0.012001	
10.8448	  0.010600	  0.012201	  0.011741	
10.878	  0.010650	  0.011934	  0.011627	
10.9113	  0.010721	  0.011589	  0.011599	
10.9446	  0.010796	  0.011217	  0.011692	
10.9778	  0.010904	  0.010897	  0.011962	
